<svg width="1037.94" height="772.29" xmlns="http://www.w3.org/2000/svg" xmlns:xlink="http://www.w3.org/1999/xlink">
 <defs>
  <linearGradient y2="0" x2="0.5" y1="1" x1="0.5" id="60672ce7-bfbc-4a60-a482-eb57e060a9c7">
   <stop stop-opacity="0.25" stop-color="gray" offset="0"/>
   <stop stop-opacity="0.12" stop-color="gray" offset="0.54"/>
   <stop stop-opacity="0.1" stop-color="gray" offset="1"/>
  </linearGradient>
  <linearGradient xlink:href="#60672ce7-bfbc-4a60-a482-eb57e060a9c7" y2="179.26" x2="748.44" y1="596.28" x1="748.44" id="b310ffb6-9937-4369-8bc9-4e3f67e27eb9"/>
 </defs>
 <title>time management</title>
 <g>
  <title>background</title>
  <rect fill="none" id="canvas_background" height="402" width="582" y="-1" x="-1"/>
 </g>
 <g>
  <title>Layer 1</title>
  <path id="svg_1" opacity="0.1" fill="#6c63ff" d="m104.399998,77.329999c-6.46,2.68 -13.09,6.12 -16.64,12.15c-3.76,6.37 -3.31,14.28 -2.61,21.65c6.1,63.92 22.17,131.9 -5.58,189.8c-13.47,28.09 -36,50.6 -53.92,76.11s-31.45,57.36 -23.13,87.37c10.16,36.67 48.08,57 73.64,85.22c16.73,18.45 28.46,40.87 44.07,60.28s37,36.51 61.92,37.65c35.84,1.65 65,-29.3 100.14,-36.47c36,-7.34 72.25,11.34 101.44,33.7s55.74,49.45 89.75,63.41c37.56,15.43 79.9,13.07 119.44,22.34c36,8.45 69.14,26.42 104.88,36s77.63,9 105.32,-15.47c36.09,-32 33.25,-89 56.3,-131.33c21.41,-39.33 63.32,-62.81 91.53,-97.58c50.76,-62.58 49.1,-158.23 6,-226.29s-121.17,-109.27 -201,-120c-36,-4.83 -73.07,-4.17 -107.68,-15.16c-92.64,-29.4 -147.77,-134.74 -242.35,-156.66c-60.12,-13.91 -118.59,10.18 -169.8,39.83c-44.45,25.74 -85.46,14.26 -131.72,33.45z"/>
  <path id="svg_2" stroke-width="2" stroke-miterlimit="10" stroke="#535461" fill="none" d="m194.679998,283.829999s-34.13,32.21 -70.76,33.17a71.09,71.09 0 0 0 -42.37,15.07a119.57,119.57 0 0 0 -15.84,15.07"/>
  <path id="svg_3" fill="#6c63ff" d="m42.609998,347.929999c4.92,-2.5 23.7,-0.84 23.7,-0.84s-9.74,16.15 -14.66,18.65a10,10 0 1 1 -9,-17.81l-0.04,0z"/>
  <path id="svg_4" fill="#6c63ff" d="m62.379998,319.379999c5.49,0.58 20.35,12.18 20.35,12.18s-17,8.26 -22.44,7.69a10,10 0 0 1 2.09,-19.87z"/>
  <path id="svg_5" fill="#6c63ff" d="m109.259998,296.369999c4.44,3.27 11.42,20.79 11.42,20.79s-18.81,-1.43 -23.25,-4.69a10,10 0 0 1 11.83,-16.1z"/>
  <path id="svg_6" fill="#6c63ff" d="m148.649998,286.959999c4.93,2.47 14.77,18.56 14.77,18.56s-18.78,1.77 -23.71,-0.7a10,10 0 1 1 8.94,-17.86z"/>
  <path id="svg_7" fill="#6c63ff" d="m93.179998,349.769999c1.64,-5.27 -3.16,-23.51 -3.16,-23.51s-14.28,12.32 -15.92,17.59a10,10 0 1 0 19.08,5.92z"/>
  <path id="svg_8" fill="#6c63ff" d="m139.109998,338.139999c0,-5.52 -10.05,-21.48 -10.05,-21.48s-9.94,16 -9.93,21.54a10,10 0 0 0 20,-0.06l-0.02,0z"/>
  <path id="svg_9" fill="#6c63ff" d="m182.199998,320.779999c0.92,-5.44 -6.28,-22.87 -6.28,-22.87s-12.51,14.12 -13.42,19.56a10,10 0 0 0 19.7,3.32l0,-0.01z"/>
  <path id="svg_10" stroke-width="2" stroke-miterlimit="10" stroke="#535461" fill="none" d="m239.029998,198.529999s-41.11,-22.58 -53.33,-57.17a71.09,71.09 0 0 0 -27.37,-35.69a119.57,119.57 0 0 0 -19.24,-10.4"/>
  <path id="svg_11" fill="#6c63ff" d="m131.289998,73.519999c3.89,3.91 8.08,22.3 8.08,22.3s-18.36,-4.3 -22.25,-8.22a10,10 0 0 1 14.17,-14.08z"/>
  <path id="svg_12" fill="#6c63ff" d="m164.539998,83.549999c1.14,5.4 -5.33,23.11 -5.33,23.11s-13.07,-13.59 -14.21,-19a10,10 0 1 1 19.55,-4.12l-0.01,0.01z"/>
  <path id="svg_13" fill="#6c63ff" d="m200.839998,121.139999c-1.74,5.23 -16.27,17.26 -16.27,17.26s-4.42,-18.33 -2.68,-23.57a10,10 0 0 1 19,6.31l-0.05,0z"/>
  <path id="svg_14" fill="#6c63ff" d="m221.919998,155.689999c-0.83,5.45 -13.12,19.76 -13.12,19.76s-7.46,-17.32 -6.63,-22.77a10,10 0 1 1 19.75,3l0,0.01z"/>
  <path id="svg_15" fill="#6c63ff" d="m145.079998,122.209999c5.52,-0.06 21.4,-10.24 21.4,-10.24s-16.11,-9.8 -21.63,-9.74a10,10 0 1 0 0.23,20l0,-0.02z"/>
  <path id="svg_16" fill="#6c63ff" d="m170.239998,162.349999c5.24,-1.71 17.35,-16.17 17.35,-16.17s-18.31,-4.53 -23.55,-2.82a10,10 0 1 0 6.2,19l0,-0.01z"/>
  <path id="svg_17" fill="#6c63ff" d="m200.039998,198.009999c5.46,-0.8 19.84,-13 19.84,-13s-17.28,-7.56 -22.73,-6.76a10,10 0 1 0 2.9,19.77l-0.01,-0.01z"/>
  <circle id="svg_18" fill="url(#60672ce7-bfbc-4a60-a482-eb57e060a9c7)" r="362" cy="384.41" cx="521.94"/>
  <circle id="svg_19" fill="#07001c" r="356" cy="384.41" cx="521.94"/>
  <circle id="svg_20" fill="#dde1ec" r="283" cy="384.41" cx="521.94"/>
  <rect id="svg_21" opacity="0.3" fill="#535461" height="250" width="16" y="151.41" x="513.94"/>
  <g id="svg_22" opacity="0.1">
   <rect id="svg_23" height="20" width="226" y="378.41" x="538.94"/>
   <rect id="svg_24" transform="rotate(-62.36000061035156 -164.99000549316406,624.6300048828125) " height="160.52" width="20" y="957.940005" x="351.959995"/>
   <circle id="svg_25" r="30" cy="388.41" cx="521.94"/>
  </g>
  <rect id="svg_26" fill="#535461" height="20" width="226" y="374.41" x="538.94"/>
  <rect id="svg_27" fill="#535461" transform="rotate(27.639999389648438 169.10000610351562,-261.5899963378906) " height="20" width="160.52" y="137.980004" x="615.790006"/>
  <circle id="svg_28" fill="#535461" r="30" cy="384.41" cx="521.94"/>
  <g id="svg_29" opacity="0.1">
   <path id="svg_30" d="m260.919998,418.409999c0,-156.3 126.7,-283 283,-283a282.56,282.56 0 0 1 226.16,112.84c-48.16,-87.52 -141.16,-146.84 -248.16,-146.84c-156.3,0 -283,126.7 -283,283a281.74,281.74 0 0 0 56.87,170.16a281.71,281.71 0 0 1 -34.87,-136.16z"/>
  </g>
  <path id="svg_31" fill="url(#b310ffb6-9937-4369-8bc9-4e3f67e27eb9)" d="m783.419998,176.229999c-3.36,-3.23 -31.64,18 -31.64,18s-10.07,1.84 -7.67,8.75s-10.55,45.61 -10.55,45.61l-5.27,-7.37c0.51,-8.65 -1.87,-14.78 -4.19,-18.6c-0.19,-0.31 -0.38,-0.61 -0.57,-0.89l0.92,-0.32c-0.35,-4.72 -7.9,-11.91 -11.91,-15.43c0,-0.51 0,-1 0,-1.52c0.25,-5.64 2.51,-11.59 0,-16.7c-2.84,-5.83 -11.15,-8.76 -11.85,-15.16c-0.42,-3.82 2.16,-7.27 3.3,-10.95c2.72,-8.8 -2.93,-17.78 -8.33,-25.36a35.47,35.47 0 0 0 -6.61,-7.62a32.08,32.08 0 0 0 -7.94,-4.24c-7.91,-3.2 -16,-4.81 -24.16,-7c-7.83,-2.08 -15.05,-3.07 -23,-0.46a11.31,11.31 0 0 0 -5,2.87c-1.89,2.12 -2.14,5.14 -3.38,7.67c-2,4.07 -6.31,6.5 -10.12,9.11s-7.63,6.19 -7.65,10.69c0,6.39 7.3,10.41 9.74,16.36c2.28,5.54 0,11.71 -1.27,17.55a11.79,11.79 0 0 0 -0.15,5.79a12.44,12.44 0 0 0 2.24,3.9c1.51,2 3.13,3.86 4.74,5.76l-0.74,0.29c-13.42,-1.38 -22.05,15.66 -22.05,15.66c0.62,0.13 1.21,0.28 1.79,0.45l-0.57,0.74a72.75,72.75 0 0 0 -9.85,17.23l-11,14.74s-2.4,-36.86 3.36,-45.15s-5.27,-13.36 -5.27,-13.36s-24,-26.72 -27.33,-24.42s8.15,31.33 18.22,35.94c0,0 1,9.21 -1,15.2c-1.21,3.79 -7.67,43.77 -7.67,43.77s-5.75,33.63 20.62,17c17.13,-10.78 28.2,-29.34 33.84,-41q0.59,-1.23 1.11,-2.35a28.15,28.15 0 0 1 0.53,3.75l1,38.53a58.48,58.48 0 0 1 -6.06,27.52l-11.75,23.83l1.31,0.4l-0.79,1.14c-7.74,11.39 -20.9,37 6.19,50.05l36,4.61l-1.92,9.21s-14.86,28.1 -19.18,47.45a142.19,142.19 0 0 1 -12.47,34.09l1.11,0.59c-0.23,0.26 -0.47,0.53 -0.7,0.81a17.38,17.38 0 0 0 -4.16,8.72l-4.88,6.92s-1.92,28.56 1.92,35.48c2.1,3.78 9.07,6.18 15,7.58c8.8,2.09 15.9,-7 11.23,-14.49l-0.06,-0.1l-0.09,0c-1,-4.65 -4.06,-19.08 -3.06,-24.56c0.28,-1.56 0.54,-3.11 0.67,-4.69a16.58,16.58 0 0 1 1.86,-5.93c0.16,-0.31 0.33,-0.61 0.5,-0.91l0.52,0.22c1.61,0.69 3.2,1.34 4.71,1.91c-2.34,2.13 -4,6.54 -2,15.61c0,0 0.19,22.69 1.92,26.26s21.09,8.29 24.45,4.61s-2.16,-16.36 -2.16,-16.36l-0.17,0.12c-1.11,-7.35 -2.48,-20.51 0.89,-25.69c1.36,-2.09 2.68,-4.25 3.86,-6.27l0.73,-1.25l0,0c6.26,3.12 12.88,5.47 16.5,3.84c0,0 15.82,-36.86 14.86,-41.46s24.45,-56.67 24.45,-56.67s21.57,-24 -4.79,-40.54c-8.37,-5.27 -14.47,-8.81 -18.9,-11.2l-3.71,-19.4a70.92,70.92 0 0 1 1,-30.66l4,-15.26l0,0l0.33,-1.3s10.07,-20.73 9.59,-30.41a7,7 0 0 1 0.25,-2.23c0.11,0.46 0.23,0.94 0.36,1.44a185.88,185.88 0 0 0 10.42,29.36c7.65,17.26 19,15.89 25.22,13.44a8.61,8.61 0 0 0 5.31,-6.22c2.24,-10.74 8.39,-40.83 8.78,-49.14a139.79,139.79 0 0 1 2.4,-19.35c15.78,-9.23 29.2,-25.35 25.84,-28.58z"/>
  <path id="svg_32" fill="#f8bdc5" d="m666.029998,471.449999s-2.11,4.23 -5,9.31c-1.13,2 -2.39,4.15 -3.68,6.22c-4.57,7.31 0,30.6 0,30.6l-10,1.37l-10,-5l-1.83,-16.9l0,-12.36l11.4,-12.75l5,-5.52l14.11,5.03z"/>
  <g id="svg_33" opacity="0.1">
   <path id="svg_34" d="m666.029998,471.449999s-2.11,4.23 -5,9.31a123.85,123.85 0 0 1 -12.78,-7.86l-0.88,-0.62l-0.47,-0.34l5,-5.52l14.13,5.03z"/>
  </g>
  <path id="svg_35" fill="#5e52ad" d="m714.919998,386.029999s-24.21,51.61 -23.29,56.18s-14.16,41.11 -14.16,41.11c-3.44,1.62 -9.76,-0.71 -15.72,-3.8a123.23,123.23 0 0 1 -13,-8l-0.88,-0.62l-0.53,-0.38l39.74,-110.08l-35.16,-25.79l-2.6,-1.91l-15.72,-11.6l48,8.68s1.67,-0.21 10.5,4.73c4.24,2.37 10.13,5.92 18.27,11.26c25.09,16.47 4.55,40.22 4.55,40.22z"/>
  <g id="svg_36" opacity="0.03">
   <path id="svg_37" d="m714.919998,386.029999s-24.21,51.61 -23.29,56.18s-14.16,41.11 -14.16,41.11c-3.44,1.62 -9.76,-0.71 -15.72,-3.8a123.23,123.23 0 0 1 -13,-8l-0.88,-0.62l-0.53,-0.38l39.74,-110.08l-35.16,-25.79l-2.6,-1.91l-15.72,-11.6l48,8.68s1.67,-0.21 10.5,4.73c4.24,2.37 10.13,5.92 18.27,11.26c25.09,16.47 4.55,40.22 4.55,40.22z"/>
  </g>
  <path id="svg_38" fill="#5d3e53" d="m641.369998,480.579999s-11.88,-1.83 -7.76,17.36c0,0 0.18,22.5 1.83,26s20.1,8.22 23.29,4.57s-2.06,-16.21 -2.06,-16.21s-13.47,9.82 -17.13,-0.69s1.83,-31.03 1.83,-31.03z"/>
  <path id="svg_39" fill="#f8bdc5" d="m633.139998,476.929999a14.4,14.4 0 0 0 -3.11,4.32a16.92,16.92 0 0 0 -1.77,5.88c-0.12,1.56 -0.37,3.11 -0.63,4.65c-1.14,6.51 3.23,25.8 3.23,25.8l-17.36,2.74l-6.39,-6.85l-1.37,-15.07a54.61,54.61 0 0 0 2.74,-16c0,-3.93 2,-7.44 4,-10a27.5,27.5 0 0 1 4.63,-4.59s19.69,5.92 16.03,9.12z"/>
  <g id="svg_40" opacity="0.1">
   <path id="svg_41" d="m633.139998,476.929999a14.4,14.4 0 0 0 -3.11,4.32c-7.11,-3.21 -14.58,-7.26 -17.3,-8.76l-0.21,-0.11a27.5,27.5 0 0 1 4.63,-4.59s19.65,5.94 15.99,9.14z"/>
  </g>
  <path id="svg_42" fill="#5e52ad" d="m689.329998,372.329999s-11.41,21.47 -18.73,39.28c-4.8,11.7 -14.72,39.56 -21,57.3l-0.92,2.62c-2.76,7.85 -4.6,13.16 -4.6,13.16a11.89,11.89 0 0 1 -3.59,-0.53c-1.08,-0.29 -2.29,-0.68 -3.58,-1.16l-1.45,-0.55c-1.44,-0.56 -3,-1.21 -4.49,-1.89c-7.26,-3.24 -15,-7.46 -17.81,-9l-1.06,-0.59a144.48,144.48 0 0 0 11.91,-33.83c4.11,-19.18 18.27,-47 18.27,-47l1.83,-9.14l-34.26,-4.57c-25.81,-12.9 -13.27,-38.33 -5.9,-49.62a66.66,66.66 0 0 1 4.07,-5.67l27.41,6s4.32,1.38 13.92,5.63l4.41,2c5.38,2.47 12,5.65 20,9.73c26.98,13.64 15.57,27.83 15.57,27.83z"/>
  <path id="svg_43" fill="#5d3e53" d="m630.689998,516.209999a9.7,9.7 0 0 1 -10.7,14.36c-5.61,-1.39 -12.26,-3.77 -14.26,-7.52c-3.65,-6.85 -1.83,-35.17 -1.83,-35.17l4.8,-7.08s-2.51,31.29 3.43,34s18.5,1.27 18.5,1.27l0.06,0.14z"/>
  <path id="svg_44" fill="#85555c" d="m635.549998,118.999999a10.68,10.68 0 0 0 -4.8,2.85c-1.8,2.1 -2,5.1 -3.22,7.61c-1.9,4 -6,6.45 -9.64,9s-7.27,6.14 -7.29,10.6c0,6.34 7,10.32 9.28,16.21c2.17,5.5 0,11.61 -1.21,17.4a12.15,12.15 0 0 0 -0.14,5.74a12.47,12.47 0 0 0 2.14,3.87c4.41,6 9.89,11.32 12.84,18.15c2.24,5.19 2.86,10.92 3.45,16.55c0.85,8.1 1.7,16.35 0.16,24.35a2.46,2.46 0 0 0 0,1.47a2.28,2.28 0 0 0 1.17,1a24,24 0 0 0 32.49,-12c2,-4.53 2.77,-10 6.73,-12.94a3.37,3.37 0 0 1 1.61,-0.73a4.71,4.71 0 0 1 2.6,0.87c5.14,2.78 11.37,2.86 17.1,1.72c3.46,-0.69 7,-1.92 9.29,-4.62c4.51,-5.36 2,-13.37 2.3,-20.36c0.24,-5.59 2.39,-11.49 0,-16.55c-2.7,-5.78 -10.63,-8.68 -11.29,-15c-0.4,-3.78 2.06,-7.21 3.15,-10.85c2.59,-8.73 -2.79,-17.63 -7.93,-25.14a34.81,34.81 0 0 0 -6.29,-7.55a30.19,30.19 0 0 0 -7.56,-4.2c-7.53,-3.17 -15.21,-4.77 -23,-6.93c-7.46,-2.13 -14.33,-3.12 -21.94,-0.52z"/>
  <path id="svg_45" fill="#f8bdc5" d="m673.799998,249.459999l-26.5,0l0,-42.94a80,80 0 0 0 1.38,-12.5c0,-1.41 0,-2.85 0,-4.3c-0.25,-5.12 -1.31,-10.23 -4.09,-13.35c-7.31,-8.22 23.75,-6.85 23.75,-6.85a77.31,77.31 0 0 0 3.7,11.06a67.25,67.25 0 0 0 8.9,15.67a36.26,36.26 0 0 0 12.07,10.27c18.24,9.14 -19.21,42.94 -19.21,42.94z"/>
  <g id="svg_46" opacity="0.1">
   <path id="svg_47" d="m672.009998,180.579999a24.25,24.25 0 0 1 -23.36,9.14c-0.25,-5.12 -1.31,-10.23 -4.09,-13.35c-7.31,-8.22 23.75,-6.85 23.75,-6.85a77.31,77.31 0 0 0 3.7,11.06z"/>
  </g>
  <circle id="svg_48" fill="#f8bdc5" r="24.21" cy="164.51" cx="652.78"/>
  <path id="svg_49" fill="#f8bdc5" d="m753.269998,206.069999a143.91,143.91 0 0 0 -2.28,19.18c-0.37,8.23 -6.23,38.07 -8.37,48.72a8.45,8.45 0 0 1 -5.06,6.17c-5.94,2.43 -16.74,3.79 -24,-13.32a189.36,189.36 0 0 1 -9.93,-29.1a78.65,78.65 0 0 1 -2,-10.18l16,-8.68a19.71,19.71 0 0 1 3.78,4.85c2.21,3.79 4.48,9.87 4,18.44l5,7.31s12.33,-38.37 10,-45.22s7.31,-8.68 7.31,-8.68s26.95,-21 30.15,-17.81s-9.53,19.18 -24.6,28.32z"/>
  <path id="svg_50" fill="#f8bdc5" d="m622.179998,224.339999a108,108 0 0 1 -4.3,10.5c-5.38,11.57 -15.92,30 -32.24,40.66c-25.12,16.44 -19.64,-16.9 -19.64,-16.9s6.15,-39.64 7.31,-43.39c1.83,-5.94 0.91,-15.07 0.91,-15.07c-9.59,-4.57 -20.55,-33.34 -17.36,-35.63s26,24.21 26,24.21s10.51,5 5,13.25s-3.2,44.76 -3.2,44.76l10.57,-14.59a72.9,72.9 0 0 1 9.39,-17.08c2,-2.73 3.4,-4.38 3.4,-4.38l14.16,13.66z"/>
  <g id="svg_51" opacity="0.1">
   <path id="svg_52" d="m721.419998,223.709999c-3.36,1.24 -16.37,6.49 -17.81,14a78.65,78.65 0 0 1 -2,-10.18l16,-8.68a19.71,19.71 0 0 1 3.81,4.86z"/>
  </g>
  <g id="svg_53" opacity="0.1">
   <path id="svg_54" d="m622.179998,224.339999a108,108 0 0 1 -4.3,10.5c-0.62,-4.52 -3.17,-16.08 -13.26,-19.81c2,-2.73 3.4,-4.38 3.4,-4.38l14.16,13.69z"/>
  </g>
  <g id="svg_55" opacity="0.1">
   <path id="svg_56" d="m673.799998,249.459999l-26.5,0l0,-42.94a80,80 0 0 0 1.38,-12.5c5.45,5.26 4.1,13.41 4.1,13.41l14.16,32l6.86,-28.29l-2.28,-3.65l9.4,-11.18a36.26,36.26 0 0 0 12.07,10.27c18.26,9.08 -19.19,42.88 -19.19,42.88z"/>
  </g>
  <g id="svg_57" opacity="0.1">
   <path id="svg_58" d="m692.519998,337.139999s-20.76,-1.65 -38.77,-2.43l-1.81,-0.08c-2.56,-0.1 -5,-0.18 -7.39,-0.24c-17.48,-0.42 -37.25,-6.53 -40.61,-7.6a66.66,66.66 0 0 1 4.08,-5.65l27.41,6s4.32,1.38 13.92,5.63l-15.75,-11.63l48,8.68s1.67,-0.21 10.5,4.73l0.42,2.59z"/>
  </g>
  <path id="svg_59" fill="#ed677b" d="m673.799998,212.919999l-2.28,-3.65l10.14,-12.13s20.91,10.25 26.39,8c0,0 13.25,11 13.7,17.36c0,0 -19.18,6.39 -18.73,16s-9.1,30.14 -9.1,30.14l-4,16.42a73.09,73.09 0 0 0 -1,30.4l3.65,20.33s-28.78,-2.28 -48,-2.74s-41.11,-7.76 -41.11,-7.76l11.21,-23.59a60,60 0 0 0 5.78,-27.28l-1,-38.19s-0.91,-19.18 -16,-22.38c0,0 8.22,-16.9 21,-15.53c0,0 18.62,-7.77 24.15,-2.52s4.17,13.48 4.17,13.48l14.16,32l6.87,-28.36z"/>
  <g id="svg_60" opacity="0.1">
   <path id="svg_61" d="m635.309998,159.519999c3.67,0 6.55,-3.89 10.22,-3.69c1.9,0.1 3.53,1.31 5.1,2.4a62.25,62.25 0 0 0 19.51,9c2.71,0.72 5.58,1.26 8.3,0.6s5.27,-2.8 5.58,-5.59a9.53,9.53 0 0 0 -0.48,-3.63a44.87,44.87 0 0 0 -19.54,-25.79c-3.8,-2.33 -8.44,-4.11 -12.65,-2.65c-3.8,1.31 -6.25,4.87 -9,7.8a34.2,34.2 0 0 1 -7,5.68c-2,1.21 -5,2 -6.15,4.22c-2.17,4.14 1.24,11.61 6.11,11.65z"/>
  </g>
  <path id="svg_62" fill="#85555c" d="m635.309998,158.609999c3.67,0 6.55,-3.89 10.22,-3.69c1.9,0.1 3.53,1.31 5.1,2.4a62.25,62.25 0 0 0 19.51,9c2.71,0.72 5.58,1.26 8.3,0.6s5.27,-2.8 5.58,-5.59a9.53,9.53 0 0 0 -0.48,-3.63a44.87,44.87 0 0 0 -19.54,-25.79c-3.8,-2.33 -8.44,-4.11 -12.65,-2.65c-3.8,1.31 -6.25,4.87 -9,7.8a34.2,34.2 0 0 1 -7,5.68c-2,1.21 -5,2 -6.15,4.22c-2.17,4.18 1.24,11.6 6.11,11.65z"/>
  <path id="svg_63" opacity="0.05" d="m624.239998,262.929999s22.38,8.22 37,1.83l7.31,0.46s12.15,8.52 25,4.71"/>
  <path id="svg_64" opacity="0.05" d="m730.209998,249.229999s-3.65,8.68 -1.83,11.42"/>
  <path id="svg_65" opacity="0.05" d="m584.499998,246.489999s1.83,8.68 0,11.42"/>
  <path id="svg_66" fill="#6c63ff" d="m963.319998,444.279999s-41.84,41.84 -18.22,103.92s-40.48,165.32 -40.48,165.32s0.69,-0.1 2,-0.32c85.93,-15.17 128.62,-113.44 80.84,-186.45c-17.81,-27.15 -32.39,-58.99 -24.14,-82.47z"/>
  <path id="svg_67" opacity="0.1" d="m963.319998,444.979999s-41.84,41.84 -18.22,103.92s-40.48,165.31 -40.48,165.31s0.69,-0.1 2,-0.32c85.93,-15.17 128.62,-113.44 80.84,-186.45c-17.81,-27.14 -32.39,-58.98 -24.14,-82.46z"/>
  <path id="svg_68" stroke-miterlimit="10" stroke="#535461" fill="none" d="m963.319998,444.279999s-23.62,51.28 0,93.12s4,159.25 -58.71,176.12"/>
  <path id="svg_69" fill="#6c63ff" d="m1037.839998,613.499999s-47.74,-7.6 -52.09,35.18s-91.83,48.71 -91.83,48.71l1.64,1.09c72.2,47.4 141.23,30.19 130.82,-32.75c-3.84,-23.39 -3.52,-46.89 11.46,-52.23z"/>
  <path id="svg_70" stroke-miterlimit="10" stroke="#535461" fill="none" d="m1037.839998,613.499999s-37.06,8.13 -34,41.83s-55,74.09 -109.88,42.07"/>
  <path id="svg_71" fill="#a8a8a8" d="m995.839998,698.949999s-37.6,-7.52 -47.63,-17.55s-55.15,-27.57 -60.16,-15s-67.68,55.15 -25.07,62.67s100.27,10 112.8,5s20.06,-35.12 20.06,-35.12z"/>
  <path id="svg_72" opacity="0.2" d="m862.979998,724.379999c42.62,7.52 100.27,10 112.8,5c9.55,-3.82 16.18,-22.16 18.8,-30.7l1.25,0.26s-7.52,30.08 -20.05,35.09s-70.19,2.51 -112.8,-5c-12.3,-2.17 -15.82,-7.27 -14.49,-13.72c1.04,4.21 5.33,7.45 14.49,9.07z"/>
 </g>
</svg>